<svg xmlns="http://www.w3.org/2000/svg" width="41.579" height="42.39" viewBox="0 0 41.579 42.39">
  <g id="icon-6" transform="translate(-2 -1.805)">
    <path id="Path_33" data-name="Path 33" d="M22.79,27.564a2.083,2.083,0,0,1-1.039-.278L3.039,16.481a2.08,2.08,0,0,1,0-3.6L21.75,2.082a2.088,2.088,0,0,1,2.079,0l18.711,10.8a2.08,2.08,0,0,1,0,3.6l-18.711,10.8a2.083,2.083,0,0,1-1.039.278Z" transform="translate(0 0)" fill="#3445c7" opacity="0.2"/>
    <path id="Path_34" data-name="Path 34" d="M42.54,12.355,38.456,10,23.829,18.445a2.081,2.081,0,0,1-2.079,0L7.123,10,3.039,12.355a2.08,2.08,0,0,0,0,3.6l18.711,10.8a2.081,2.081,0,0,0,2.079,0l18.711-10.8a2.08,2.08,0,0,0,0-3.6Z" transform="translate(0 8.84)" fill="#3445c7" opacity="0.6"/>
    <path id="Path_35" data-name="Path 35" d="M42.54,16.355,38.456,14,23.829,22.445a2.081,2.081,0,0,1-2.079,0L7.123,14,3.039,16.355a2.08,2.08,0,0,0,0,3.6l18.711,10.8a2.081,2.081,0,0,0,2.079,0l18.711-10.8a2.08,2.08,0,0,0,0-3.6Z" transform="translate(0 13.156)" fill="#3445c7"/>
  </g>
</svg>
