<svg xmlns="http://www.w3.org/2000/svg" width="42" height="42" viewBox="0 0 42 42">
  <g id="icone-1" transform="translate(-2 -2)">
    <path id="Path_21" data-name="Path 21" d="M23,2A21.035,21.035,0,0,0,8.313,8.031V4.1a2.1,2.1,0,1,0-4.2,0v9.45a2.1,2.1,0,0,0,2.1,2.1h9.45a2.1,2.1,0,1,0,0-4.2h-4.8A16.756,16.756,0,1,1,6.2,23,2.1,2.1,0,0,0,2,23,21,21,0,1,0,23,2Z" fill="#3445c7"/>
    <path id="Path_22" data-name="Path 22" d="M17.405,18.675h-4.27A2.134,2.134,0,0,1,11,16.54V10.135a2.135,2.135,0,1,1,4.27,0v4.27h2.135a2.135,2.135,0,1,1,0,4.27Z" transform="translate(9.821 6.53)" fill="#3445c7"/>
    <path id="Path_23" data-name="Path 23" d="M22.961,4A16.8,16.8,0,0,0,10.842,9.228h4.8a2.091,2.091,0,1,1,0,4.182H6.205a2.072,2.072,0,0,1-2.049-1.859A20.709,20.709,0,0,0,2,20.73a2.1,2.1,0,0,1,4.192,0A16.769,16.769,0,1,0,22.961,4Zm4.192,18.821H22.961a2.093,2.093,0,0,1-2.1-2.091V14.456a2.1,2.1,0,0,1,4.192,0v4.182h2.1a2.091,2.091,0,1,1,0,4.182Z" transform="translate(0 2.27)" fill="#3445c7" opacity="0.2"/>
  </g>
</svg>
