<svg xmlns="http://www.w3.org/2000/svg" width="36.55" height="43" viewBox="0 0 36.55 43">
  <path id="icon-3" d="M6.15,45A2.149,2.149,0,0,1,4,42.85V25.65a2.15,2.15,0,0,1,4.3,0v17.2A2.149,2.149,0,0,1,6.15,45ZM16.9,45a2.149,2.149,0,0,1-2.15-2.15V4.15a2.15,2.15,0,1,1,4.3,0v38.7A2.149,2.149,0,0,1,16.9,45Zm10.75,0a2.149,2.149,0,0,1-2.15-2.15V17.05a2.15,2.15,0,1,1,4.3,0v25.8A2.149,2.149,0,0,1,27.65,45ZM38.4,45a2.149,2.149,0,0,1-2.15-2.15v-8.6a2.15,2.15,0,0,1,4.3,0v8.6A2.149,2.149,0,0,1,38.4,45Z" transform="translate(-4 -2)" fill="#3445c7"/>
</svg>
