<svg xmlns="http://www.w3.org/2000/svg" width="36.55" height="36.551" viewBox="0 0 36.55 36.551">
  <g id="icon-4" transform="translate(-2 -2)">
    <path id="Path_27" data-name="Path 27" d="M7.828,9.31A1.826,1.826,0,0,1,6,7.482V3.827a1.828,1.828,0,0,1,3.655,0V7.482A1.826,1.826,0,0,1,7.828,9.31Zm18.275,0a1.826,1.826,0,0,1-1.828-1.828V3.827a1.828,1.828,0,0,1,3.655,0V7.482A1.826,1.826,0,0,1,26.1,9.31Z" transform="translate(3.31 0)" fill="#3445c7" opacity="0.2"/>
    <path id="Path_28" data-name="Path 28" d="M33.068,4H31.24V5.827a1.828,1.828,0,0,1-3.655,0V4H12.965V5.827a1.828,1.828,0,1,1-3.655,0V4H7.483A5.483,5.483,0,0,0,2,9.483v3.655H38.55V9.483A5.483,5.483,0,0,0,33.068,4Z" transform="translate(0 1.655)" fill="#3445c7"/>
    <path id="Path_29" data-name="Path 29" d="M2,9V27.275a5.483,5.483,0,0,0,5.483,5.483H33.068a5.483,5.483,0,0,0,5.483-5.483V9Zm9.138,16.448a1.828,1.828,0,1,1,1.828-1.828,1.828,1.828,0,0,1-1.828,1.828Zm0-7.31a1.828,1.828,0,1,1,1.828-1.828,1.828,1.828,0,0,1-1.828,1.828Zm9.138,7.31A1.828,1.828,0,1,1,22.1,23.62a1.828,1.828,0,0,1-1.828,1.828Zm0-7.31A1.828,1.828,0,1,1,22.1,16.31a1.828,1.828,0,0,1-1.828,1.828Zm9.138,7.31A1.828,1.828,0,1,1,31.24,23.62a1.828,1.828,0,0,1-1.828,1.828Zm0-7.31A1.828,1.828,0,1,1,31.24,16.31a1.828,1.828,0,0,1-1.828,1.828Z" transform="translate(0 5.793)" fill="#3445c7" opacity="0.2"/>
  </g>
</svg>
