<svg xmlns="http://www.w3.org/2000/svg" width="42" height="28.699" viewBox="0 0 42 28.699">
  <g id="icon-2" transform="translate(-2 -5.167)">
    <path id="Path_24" data-name="Path 24" d="M41.9,9.367H4.1a2.1,2.1,0,1,1,0-4.2H41.9a2.1,2.1,0,0,1,0,4.2Zm-25.2,21H4.1a2.1,2.1,0,1,1,0-4.2H16.7a2.1,2.1,0,1,1,0,4.2Z" transform="translate(0 0)" fill="#3445c7" opacity="0.2"/>
    <path id="Path_25" data-name="Path 25" d="M36.65,24.867H29.3a2.1,2.1,0,1,1,0-4.2h7.35a3.15,3.15,0,1,0,0-6.3H4.1a2.1,2.1,0,0,1,0-4.2H36.65a7.35,7.35,0,1,1,0,14.7Z" transform="translate(0 5.5)" fill="#3445c7"/>
    <path id="Path_26" data-name="Path 26" d="M18.3,24.7a2.09,2.09,0,0,1-1.341-.486l-4.2-3.5a2.1,2.1,0,0,1,0-3.228l4.2-3.5a2.1,2.1,0,0,1,2.691,3.228L17.381,19.1l2.262,1.885A2.1,2.1,0,0,1,18.3,24.7Z" transform="translate(11 9.166)" fill="#3445c7"/>
  </g>
</svg>
