<svg xmlns="http://www.w3.org/2000/svg" width="24" height="19.505" viewBox="0 0 24 19.505">
  <path id="twitter" d="M7.548,20a13.915,13.915,0,0,0,14.01-14.01q0-.32-.014-.636A10.018,10.018,0,0,0,24,2.808a9.822,9.822,0,0,1-2.828.775A4.941,4.941,0,0,0,23.338.86a9.878,9.878,0,0,1-3.127,1.2,4.928,4.928,0,0,0-8.391,4.49A13.98,13.98,0,0,1,1.67,1.4,4.928,4.928,0,0,0,3.2,7.975a4.887,4.887,0,0,1-2.23-.616c0,.021,0,.041,0,.063a4.925,4.925,0,0,0,3.95,4.827,4.917,4.917,0,0,1-2.224.084,4.929,4.929,0,0,0,4.6,3.42,9.879,9.879,0,0,1-6.116,2.108A10.04,10.04,0,0,1,0,17.793,13.939,13.939,0,0,0,7.548,20" transform="translate(0 -0.5)" fill="#fff"/>
</svg>
