<svg xmlns="http://www.w3.org/2000/svg" width="29.885" height="20.924" viewBox="0 0 29.885 20.924">
  <g id="youtube" transform="translate(0)">
    <path id="Subtraction_2" data-name="Subtraction 2" d="M14.942,20.924c-.023,0-2.363,0-4.96-.08-1.526-.046-2.841-.11-3.909-.19a17.358,17.358,0,0,1-2.824-.37A3.745,3.745,0,0,1,.615,17.65a14.874,14.874,0,0,1-.356-2.1c-.077-.692-.138-1.487-.183-2.362C0,11.7,0,10.474,0,10.462s0-1.23.077-2.717C.122,6.871.183,6.077.26,5.384a15.169,15.169,0,0,1,.356-2.11,3.791,3.791,0,0,1,.975-1.68A3.745,3.745,0,0,1,3.249.616,17.744,17.744,0,0,1,6.063.26C7.129.183,8.445.122,9.973.077,12.574,0,14.919,0,14.942,0s2.369,0,4.97.08c1.527.046,2.843.11,3.91.19a17.116,17.116,0,0,1,2.814.37,3.744,3.744,0,0,1,2.634,2.634,14.356,14.356,0,0,1,.366,2.113c.078.7.139,1.493.182,2.37.073,1.487.068,2.717.068,2.729s0,1.23-.077,2.717c-.045.874-.106,1.668-.183,2.361a15.176,15.176,0,0,1-.356,2.11,3.744,3.744,0,0,1-2.634,2.634,17.747,17.747,0,0,1-2.814.356c-1.066.077-2.382.138-3.91.183C17.311,20.923,14.966,20.924,14.942,20.924ZM11.964,5.982h0v8.961l7.779-4.48-7.779-4.48Z" transform="translate(0)" fill="#fff"/>
  </g>
</svg>
