<svg xmlns="http://www.w3.org/2000/svg" width="24" height="24.001" viewBox="0 0 24 24.001">
  <g id="facebook" transform="translate(0)">
    <path id="Subtraction_1" data-name="Subtraction 1" d="M12.819,24H1.324A1.325,1.325,0,0,1,0,22.677V1.324A1.325,1.325,0,0,1,1.323,0H22.676A1.325,1.325,0,0,1,24,1.323V22.676A1.326,1.326,0,0,1,22.676,24H16.57V14.719H19.7l.468-3.633h-3.6V8.772c0-1.059.306-1.764,1.8-1.764h1.906V3.768a25.342,25.342,0,0,0-2.794-.143c-2.874,0-4.659,1.835-4.659,4.788v2.673H9.7v3.633h3.117V24Z" transform="translate(0 0)" fill="#fff"/>
  </g>
</svg>
