<svg xmlns="http://www.w3.org/2000/svg" width="42" height="42" viewBox="0 0 42 42">
  <g id="icon-5" transform="translate(-1 -1)">
    <path id="Path_30" data-name="Path 30" d="M10.545,32.091H2.909A1.909,1.909,0,0,1,1,30.182V14.909A1.909,1.909,0,0,1,2.909,13h7.636a1.909,1.909,0,0,1,1.909,1.909V30.182a1.909,1.909,0,0,1-1.909,1.909Z" transform="translate(0 10.909)" fill="#3445c7" opacity="0.2"/>
    <path id="Path_31" data-name="Path 31" d="M18.545,43H10.909A1.909,1.909,0,0,1,9,41.091V2.909A1.909,1.909,0,0,1,10.909,1h7.636a1.909,1.909,0,0,1,1.909,1.909V41.091A1.909,1.909,0,0,1,18.545,43Z" transform="translate(7.273)" fill="#3445c7"/>
    <path id="Path_32" data-name="Path 32" d="M26.545,35.727H18.909A1.909,1.909,0,0,1,17,33.818V10.909A1.909,1.909,0,0,1,18.909,9h7.636a1.909,1.909,0,0,1,1.909,1.909V33.818a1.909,1.909,0,0,1-1.909,1.909Z" transform="translate(14.545 7.273)" fill="#3445c7" opacity="0.2"/>
  </g>
</svg>
